<svg width="23" height="23" viewBox="0 0 23 23" fill="none" xmlns="http://www.w3.org/2000/svg">
<path d="M23 11.4096C23 17.2779 18.0632 22.0351 11.9735 22.0351C5.88374 22.0351 0.947021 17.2779 0.947021 11.4096C0.947021 5.54129 5.88374 0.784088 11.9735 0.784088C18.0632 0.784088 23 5.54129 23 11.4096Z" fill="white"/>
<path fill-rule="evenodd" clip-rule="evenodd" d="M11.9735 20.4312C17.234 20.4312 21.3961 16.3366 21.3961 11.4096C21.3961 6.48255 17.234 2.38794 11.9735 2.38794C6.71301 2.38794 2.55087 6.48255 2.55087 11.4096C2.55087 16.3366 6.71301 20.4312 11.9735 20.4312ZM11.9735 22.0351C18.0632 22.0351 23 17.2779 23 11.4096C23 5.54129 18.0632 0.784088 11.9735 0.784088C5.88374 0.784088 0.947021 5.54129 0.947021 11.4096C0.947021 17.2779 5.88374 22.0351 11.9735 22.0351Z" fill="black"/>
<path d="M19.3913 11.4096C19.3913 15.5063 16.0702 18.8274 11.9735 18.8274C7.87673 18.8274 4.55566 15.5063 4.55566 11.4096C4.55566 7.31286 7.87673 3.99179 11.9735 3.99179C16.0702 3.99179 19.3913 7.31286 19.3913 11.4096Z" fill="white"/>
<path fill-rule="evenodd" clip-rule="evenodd" d="M11.9735 17.2236C15.1844 17.2236 17.7874 14.6206 17.7874 11.4096C17.7874 8.19864 15.1844 5.59564 11.9735 5.59564C8.76251 5.59564 6.15951 8.19864 6.15951 11.4096C6.15951 14.6206 8.76251 17.2236 11.9735 17.2236ZM11.9735 18.8274C16.0702 18.8274 19.3913 15.5063 19.3913 11.4096C19.3913 7.31286 16.0702 3.99179 11.9735 3.99179C7.87673 3.99179 4.55566 7.31286 4.55566 11.4096C4.55566 15.5063 7.87673 18.8274 11.9735 18.8274Z" fill="black"/>
</svg>
